<svg width="512" height="512" viewBox="0 0 512 512" fill="none" xmlns="http://www.w3.org/2000/svg">
  <defs>
    <linearGradient id="bg" x1="72" y1="48" x2="440" y2="464" gradientUnits="userSpaceOnUse">
      <stop stop-color="#342C24"/>
      <stop offset="1" stop-color="#17130F"/>
    </linearGradient>
    <linearGradient id="green" x1="256" y1="118" x2="256" y2="394" gradientUnits="userSpaceOnUse">
      <stop stop-color="#A4C562"/>
      <stop offset="1" stop-color="#5F7C31"/>
    </linearGradient>
    <pattern id="board" width="88" height="88" patternUnits="userSpaceOnUse">
      <rect width="88" height="88" fill="#F0E4C9"/>
      <rect width="44" height="44" fill="#7998AB"/>
      <rect x="44" y="44" width="44" height="44" fill="#7998AB"/>
    </pattern>
    <filter id="shadow" x="56" y="42" width="400" height="428" filterUnits="userSpaceOnUse" color-interpolation-filters="sRGB">
      <feFlood flood-opacity="0" result="BackgroundImageFix"/>
      <feColorMatrix in="SourceAlpha" type="matrix" values="0 0 0 0 0 0 0 0 0 0 0 0 0 0 0 0 0 0 127 0" result="hardAlpha"/>
      <feOffset dy="16"/>
      <feGaussianBlur stdDeviation="18"/>
      <feComposite in2="hardAlpha" operator="out"/>
      <feColorMatrix type="matrix" values="0 0 0 0 0 0 0 0 0 0 0 0 0 0 0 0 0 0 0.35 0"/>
      <feBlend mode="normal" in2="BackgroundImageFix" result="effect1_dropShadow_1_1"/>
      <feBlend mode="normal" in="SourceGraphic" in2="effect1_dropShadow_1_1" result="shape"/>
    </filter>
  </defs>

  <rect x="32" y="32" width="448" height="448" rx="112" fill="url(#bg)"/>
  <rect x="68" y="68" width="376" height="376" rx="88" fill="url(#board)"/>
  <rect x="68" y="68" width="376" height="376" rx="88" fill="rgba(15, 13, 10, 0.28)"/>

  <g filter="url(#shadow)">
    <circle cx="256" cy="256" r="138" fill="url(#green)"/>
    <circle cx="256" cy="256" r="134" stroke="rgba(255,255,255,0.22)" stroke-width="8"/>

    <path d="M220 170C243 170 262 180 278 198C292 213 299 227 299 241C299 257 291 273 276 289L293 334H236L246 298C229 294 214 285 203 272C192 259 186 244 186 227C186 210 192 197 204 188C212 176 217 170 220 170Z" fill="#F8F3E7"/>
    <path d="M263 201C270 193 280 188 294 186C307 184 317 177 323 164C334 177 339 190 339 204C339 230 324 249 293 262C277 269 263 280 252 295L239 284C245 266 253 250 263 236C271 226 275 216 275 207C275 204 271 202 263 201Z" fill="#F8F3E7"/>
    <circle cx="236" cy="213" r="10" fill="#172012"/>
    <rect x="194" y="334" width="124" height="20" rx="10" fill="#F8F3E7"/>
    <rect x="180" y="350" width="152" height="26" rx="13" fill="#F8F3E7"/>

    <path d="M166 346L346 166" stroke="#D96449" stroke-width="30" stroke-linecap="round"/>
  </g>
</svg>
