<svg width="512" height="512" viewBox="0 0 512 512" fill="none" xmlns="http://www.w3.org/2000/svg">
  <defs>
    <linearGradient id="bg" x1="72" y1="56" x2="440" y2="456" gradientUnits="userSpaceOnUse">
      <stop stop-color="#2F2821"/>
      <stop offset="1" stop-color="#17130F"/>
    </linearGradient>
    <radialGradient id="glow" cx="0" cy="0" r="1" gradientUnits="userSpaceOnUse" gradientTransform="translate(256 214) rotate(90) scale(170)">
      <stop stop-color="#A7C768"/>
      <stop offset="1" stop-color="#5E7C31"/>
    </radialGradient>
    <pattern id="board" width="72" height="72" patternUnits="userSpaceOnUse">
      <rect width="72" height="72" fill="#EEDFC0"/>
      <rect width="36" height="36" fill="#7B98A9"/>
      <rect x="36" y="36" width="36" height="36" fill="#7B98A9"/>
    </pattern>
    <filter id="shadow" x="110" y="96" width="292" height="324" filterUnits="userSpaceOnUse" color-interpolation-filters="sRGB">
      <feFlood flood-opacity="0" result="BackgroundImageFix"/>
      <feColorMatrix in="SourceAlpha" type="matrix" values="0 0 0 0 0 0 0 0 0 0 0 0 0 0 0 0 0 0 127 0" result="hardAlpha"/>
      <feOffset dy="18"/>
      <feGaussianBlur stdDeviation="18"/>
      <feComposite in2="hardAlpha" operator="out"/>
      <feColorMatrix type="matrix" values="0 0 0 0 0 0 0 0 0 0 0 0 0 0 0 0 0 0 0.34 0"/>
      <feBlend mode="normal" in2="BackgroundImageFix" result="effect1_dropShadow_1_1"/>
      <feBlend mode="normal" in="SourceGraphic" in2="effect1_dropShadow_1_1" result="shape"/>
    </filter>
  </defs>

  <rect x="32" y="32" width="448" height="448" rx="110" fill="url(#bg)"/>
  <rect x="76" y="76" width="360" height="360" rx="82" fill="url(#board)"/>
  <rect x="76" y="76" width="360" height="360" rx="82" fill="rgba(10, 9, 7, 0.18)"/>
  <circle cx="256" cy="236" r="132" fill="url(#glow)" opacity="0.96"/>
  <circle cx="256" cy="236" r="128" stroke="rgba(255,255,255,0.2)" stroke-width="8"/>

  <g filter="url(#shadow)" fill="#FFF7EA">
    <circle cx="256" cy="176" r="34"/>
    <path d="M214 270C214 249.013 231.013 232 252 232H260C280.987 232 298 249.013 298 270C298 287.745 288.924 300.234 279.418 312.891C274.864 318.953 271.484 326.054 269.498 333.612L266 346H246L242.502 333.612C240.516 326.054 237.136 318.953 232.582 312.891C223.076 300.234 214 287.745 214 270Z"/>
    <rect x="198" y="346" width="116" height="24" rx="12"/>
    <rect x="184" y="366" width="144" height="28" rx="14"/>
  </g>
</svg>
